<svg xmlns="http://www.w3.org/2000/svg" version="1.1" xmlns:xlink="http://www.w3.org/1999/xlink" xmlns:svgjs="http://svgjs.dev/svgjs" width="100%" height="100%" viewBox="0 0 1000 600"><rect width="1000" height="600" x="0" y="0" fill="#FFFFFF00"/><g><rect width="333.3333333333333" height="333.3333333333333" rx="13.333333333333334" ry="13.333333333333334" y="364.3984509446273" fill="#0284c7" transform="matrix(0.3653088798359725,0,0,0.36530887983597243,0,105.99720645007714)" x="342.1761169433594"/><path d="M400.8762204262862 606.0651305523268L400.8762204262862 606.0651305523268Q387.34922584790195 606.0651305523268 377.1086160694723 602.0451777166681Q366.8680062910426 598.0252248810095 359.7964104268548 592.3327369239455Q352.72481456266695 586.6402489668815 348.49946267701114 581.241188224099Q344.2741107913553 575.8421274813165 342.5722329485218 572.9078553385L342.5722329485218 572.9078553385L357.7717626483114 556.8280439958655Q361.58631643397285 562.1097338529353 365.694297433916 567.1860246600079Q369.8316211552873 572.2623154670805 374.9079119623599 576.2822683027391Q379.9548600480043 580.3022211383977 386.292887876488 582.6202961312229Q392.6309157049717 584.9383711240478 400.8762204262862 584.9383711240478L400.8762204262862 584.9383711240478Q413.34687703325636 584.9383711240478 422.3257497902749 579.4512822169809Q431.30462254729355 573.964193309914 436.17551430436896 564.6625506171856Q441.0170633400162 555.3609079244573 441.0170633400162 544.1519883388981L441.0170633400162 544.1519883388981L441.0170633400162 478.6590341112332L404.25063339052514 478.6590341112332L404.25063339052514 456.065138611546L491.7212859678858 456.065138611546L491.7212859678858 478.6590341112332L463.8457006111288 478.6590341112332L463.8457006111288 546.264664281726Q463.8457006111288 557.6789829172824 459.7083768897575 568.3597335171344Q455.60039588981437 579.0111413955585 447.5604902184971 587.5792160525828Q439.549927268608 596.147290709607 427.8128386973418 601.1062106309669Q416.1050928475039 606.0651305523268 400.8762204262862 606.0651305523268ZM563.5522680240344 603.952454609499L540.75297347435 603.952454609499L540.75297347435 456.065138611546L627.1379453588686 456.065138611546Q640.2541418372584 456.065138611546 651.1402914871078 462.0803965043199Q661.9970984155289 468.09565439709377 668.5698680154378 478.45363506123607Q675.1132948939187 488.81161572537843 675.1132948939187 501.4876713823458L675.1132948939187 501.4876713823458Q675.1132948939187 514.8092669107328 667.9243281440183 525.666073839154Q660.7353613941177 536.5522234890034 648.9102446585671 543.0076222031996Q637.0851279230164 549.4336781959679 622.9125934732128 549.4336781959679L622.9125934732128 549.4336781959679L563.5522680240344 549.4336781959679L563.5522680240344 603.952454609499ZM563.5522680240344 478.0428369612418L563.5522680240344 527.4853225677002L620.7999175303848 527.4853225677002Q628.8398232017021 527.4853225677002 635.7060200158928 523.8761678320359Q642.5722168300833 520.2963558177997 646.6801978300266 514.3691260893104Q650.8175215513979 508.47123908224916 650.8175215513979 501.4876713823458L650.8175215513979 501.4876713823458Q650.8175215513979 494.944244503865 646.6801978300266 489.66255464679523Q642.5722168300833 484.3808647897255 635.7060200158928 481.21185087548366Q628.8398232017021 478.0428369612418 620.7999175303848 478.0428369612418L620.7999175303848 478.0428369612418L563.5522680240344 478.0428369612418Z " fill="#ffffff" transform="matrix(0.3653088798359725,0,0,0.36530887983597243,0,105.99720645007714)"/><path d="M801.51889035484 572.0445190371763L801.51889035484 572.0445190371763Q791.6176870865226 572.0445190371763 784.1219822261261 569.1020790203445Q776.6262773657296 566.1596390035126 771.4501602558282 561.9929721183638Q766.274043145927 557.8263052332151 763.1812594786 553.8744149916306Q760.0884758112732 549.9225247500463 758.8427712785998 547.7747583144026L758.8427712785998 547.7747583144026L769.9682014152341 536.0049982470752Q772.7602977815709 539.8709778312337 775.7671707914722 543.5866137648974Q778.7955214657297 547.3022496985609 782.5111573993934 550.2446897153928Q786.2053156687005 553.1871297322247 790.8444911696909 554.8838652163832Q795.4836666706813 556.5806007005417 801.51889035484 556.5806007005417L801.51889035484 556.5806007005417Q810.6468977063257 556.5806007005417 817.2190629993954 552.5642774658879Q823.7912282924651 548.5479542312344 827.3565205756336 541.7395346302437Q830.9003351944457 534.9311150292533 830.9003351944457 526.7266472450945L830.9003351944457 526.7266472450945L830.9003351944457 478.7885004015271L803.9888217558303 478.7885004015271L803.9888217558303 462.2506988470707L868.0137392023687 462.2506988470707L868.0137392023687 478.7885004015271L847.6099580637537 478.7885004015271L847.6099580637537 528.2730390787578Q847.6099580637537 536.6278505134118 844.5816073894961 544.4457203391548Q841.5747343795949 552.2421125005415 835.6898543459312 558.513590492621Q829.8264519766238 564.7850684847006 821.2353862340491 568.4147937609384Q812.6657981558308 572.0445190371763 801.51889035484 572.0445190371763ZM941.9398599172247 572.0445190371763L941.9398599172247 572.0445190371763Q926.1537766152436 572.0445190371763 914.0188962538567 566.6321476193542Q901.8840158924697 561.2197762015321 895.01116329841 551.6407378985612Q888.1168330399937 542.0402219312339 888.1168330399937 529.8194309124212L888.1168330399937 529.8194309124212Q888.1168330399937 517.4482962431136 895.01116329841 507.95516859756844Q901.8840158924697 498.4405632876669 914.0188962538567 493.0281918698448Q926.1537766152436 487.61582045202266 941.9398599172247 487.61582045202266L941.9398599172247 487.61582045202266Q957.7044655548494 487.61582045202266 969.774912923167 493.0281918698448Q981.8238826271281 498.4405632876669 988.7182128855444 507.95516859756844Q995.5910654796041 517.4482962431136 995.5910654796041 529.8194309124212L995.5910654796041 529.8194309124212Q995.5910654796041 542.0402219312339 988.7182128855444 551.6407378985612Q981.8238826271281 561.2197762015321 969.774912923167 566.6321476193542Q957.7044655548494 572.0445190371763 941.9398599172247 572.0445190371763ZM941.9398599172247 557.5041402678685L941.9398599172247 557.5041402678685Q952.4424377875223 557.5041402678685 961.0335035300972 553.9603256490564Q969.6245692726719 550.3950333658879 974.6503427320781 544.1235553738084Q979.6761161914844 537.8735550460851 979.3539512261378 529.8194309124212L979.3539512261378 529.8194309124212Q979.6761161914844 521.6364407926188 974.6503427320781 515.4508734579649Q969.6245692726719 509.2653061233111 961.0335035300972 505.70001384014256Q952.4424377875223 502.1561992213305 941.9398599172247 502.1561992213305L941.9398599172247 502.1561992213305Q931.4158043825706 502.1561992213305 922.8462163043523 505.70001384014256Q914.2551505617774 509.2653061233111 909.2293771023712 515.4508734579649Q904.203603642965 521.6364407926188 904.3539472934601 529.8194309124212L904.3539472934601 529.8194309124212Q904.203603642965 537.8735550460851 909.2293771023712 544.1235553738084Q914.2551505617774 550.3950333658879 922.8462163043523 553.9603256490564Q931.4158043825706 557.5041402678685 941.9398599172247 557.5041402678685ZM1080.3419290301044 572.0445190371763L1080.3419290301044 572.0445190371763Q1066.1022375617868 572.0445190371763 1054.2036115083206 568.4792267540076Q1042.3049854548544 564.9354121351957 1034.2508613211908 556.4302570500466L1034.2508613211908 556.4302570500466L1045.075604156835 546.3787101312341Q1051.2611714914888 552.0917688500464 1059.7663265766378 555.4208068252941Q1068.2714816617868 558.7498448005418 1078.4733722310943 558.7498448005418L1078.4733722310943 558.7498448005418Q1082.5111731301045 558.7498448005418 1086.9140943231741 558.363246842126Q1091.3170155162436 557.9766488837101 1095.3333387508974 556.8812880015319Q1099.349661985551 555.8074047837099 1101.8410710508977 553.7885043342048Q1104.311002451888 551.7910815490563 1104.311002451888 548.5479542312344L1104.311002451888 548.5479542312344Q1104.311002451888 543.2859264639072 1095.4836824013923 540.966338713412L1095.4836824013923 540.966338713412Q1091.0163282152535 539.7206341807387 1085.9046440984216 538.7111839559861Q1080.7929599815895 537.72321139559 1075.0799012627772 536.9500154787584L1075.0799012627772 536.9500154787584Q1065.6512066103014 535.2318023302435 1057.6829931340633 533.298812538164Q1049.7147796578251 531.3658227460847 1044.3024082400032 527.6716644767776L1044.3024082400032 527.6716644767776Q1040.4364286558446 524.8795681104408 1038.2671845558443 520.8632448757871Q1036.1194181202006 516.8469216411333 1036.1194181202006 511.1123852579647L1036.1194181202006 511.1123852579647Q1036.1194181202006 505.70001384014256 1039.2766347805969 501.38300330449874Q1042.4553291053496 497.0445151044985 1048.0180441736668 493.9517314371716Q1053.5807592419837 490.8589477698447 1061.0764641023804 489.2266452787554Q1068.5936466271332 487.61582045202266 1077.3994890132724 487.61582045202266L1077.3994890132724 487.61582045202266Q1084.5085959152532 487.61582045202266 1092.4768093914913 488.92595797776534Q1100.4450228677292 490.236095503508 1107.704473420205 493.09262486291414Q1114.985401637037 495.97063188667664 1119.9252644390176 500.60980738766705L1119.9252644390176 500.60980738766705L1111.5704530043636 511.5848938738063Q1107.2534424687199 508.4921102064794 1101.368562435056 506.02217880548915Q1095.4836824013923 503.5307697401425 1089.2981150667385 502.1561992213305Q1083.1125477320847 500.7601510381621 1077.3994890132724 500.7601510381621L1077.3994890132724 500.7601510381621Q1073.5335094291138 500.7601510381621 1069.1305882360443 501.14674899657797Q1064.7276670429746 501.5333469549938 1060.861687458816 502.60723017281566Q1056.9957078746575 503.70259105499395 1054.5042988093107 505.6355808470733Q1052.0343674083203 507.5685706391526 1052.0343674083203 510.48953299162804L1052.0343674083203 510.48953299162804Q1052.0343674083203 512.358089790638 1053.194161283568 513.8185709668758Q1054.3539551588156 515.30052980747 1056.3728556083206 516.5247566757869L1056.3728556083206 516.5247566757869Q1060.2388351924794 518.8443444262821 1066.4888355202024 520.3263032668762Q1072.7603135122822 521.7867844431139 1080.1915853796093 523.0324889757871L1080.1915853796093 523.0324889757871Q1088.6967404647585 524.2567158441041 1096.8797305845608 526.1897056361835Q1105.0841983687196 528.1226954282628 1110.947600738027 531.5376440609363L1110.947600738027 531.5376440609363Q1115.2860889380272 534.0075754619265 1117.8419309964434 537.4010464302435Q1120.3977730548593 540.815995062917 1120.3977730548593 545.6055142144024L1120.3977730548593 545.6055142144024Q1120.3977730548593 554.2610129500465 1114.985401637037 560.1458929837103Q1109.573030219215 566.0092953530175 1100.5094558607987 569.0376460272751Q1091.4673591667388 572.0445190371763 1080.3419290301044 572.0445190371763ZM1172.975095399417 570.4981272035129L1172.975095399417 570.4981272035129L1172.975095399417 456.0651315124168L1188.8900446875366 456.0651315124168L1188.8900446875366 512.207746140143L1183.0266423182293 512.5084334411331Q1185.024065103378 506.6235534074694 1190.973378130111 500.91049468865714Q1196.9441688212005 495.19743596984495 1205.7500112073396 491.3958893787556Q1214.5558535934788 487.61582045202266 1224.7792218271427 487.61582045202266L1224.7792218271427 487.61582045202266Q1237.1503564964505 487.61582045202266 1245.3333466162528 492.3194289460824Q1253.537814400412 497.0445151044985 1257.7044812855606 505.0127285807366Q1261.8926258350657 512.9809420569748 1261.8926258350657 522.5599803599456L1261.8926258350657 522.5599803599456L1261.8926258350657 570.4981272035129L1245.9561988825897 570.4981272035129L1245.9561988825897 525.1802554114308Q1245.9561988825897 518.3933134747969 1242.3264736063518 513.1312857074697Q1238.696748330114 507.86925794014275 1232.7259576390245 504.92681792331086Q1226.7766446122914 501.984377906479 1219.5171940598157 501.984377906479L1219.5171940598157 501.984377906479Q1212.8591181093202 501.984377906479 1207.2104923835773 504.4757869718257Q1201.583344322191 506.9457183728159 1197.4811104301114 510.81169795697457Q1193.3788765380318 514.6776775411332 1191.1451994449626 519.0805987342028Q1188.8900446875366 523.4835199272724 1188.8900446875366 527.499843161926L1188.8900446875366 527.499843161926L1188.8900446875366 570.4981272035129L1181.0077418687242 570.4981272035129Q1176.9914186340707 570.4981272035129 1174.9725181845654 570.4981272035129Q1172.975095399417 570.4981272035129 1172.975095399417 570.4981272035129ZM1363.0094696251708 572.0445190371763L1363.0094696251708 572.0445190371763Q1352.3565481043781 572.0445190371763 1344.1520803202193 567.01874557777Q1335.9476125360602 561.9929721183638 1331.3943476924956 552.5642774658879Q1326.841082848931 543.1355828134122 1326.841082848931 530.1415958777678L1326.841082848931 530.1415958777678L1326.841082848931 489.31255593618124L1342.7560321370509 489.31255593618124L1342.7560321370509 524.2567158441041Q1342.7560321370509 534.7807713787582 1345.5481285033877 541.8898782807389Q1348.3187472053678 548.9989851827195 1354.2895378964574 552.5642774658879Q1360.2388509231905 556.1080920847 1369.5172019251713 556.1080920847L1369.5172019251713 556.1080920847Q1375.85311291032 556.1080920847 1381.5017386360632 554.1751022926207Q1387.1503643618062 552.2421125005415 1391.4673748974499 548.4620435738086Q1395.8058630974501 544.6819746470757 1398.2757944984405 539.3340362223229Q1400.7457258994305 534.0075754619265 1400.7457258994305 527.3494995114311L1400.7457258994305 527.3494995114311L1400.7457258994305 489.31255593618124L1416.6821528519067 489.31255593618124L1416.6821528519067 570.4981272035129L1400.7457258994305 570.4981272035129L1400.7457258994305 553.4878170332148L1403.5378222657673 551.6407378985612Q1401.5189218162623 556.2799133995516 1396.10655039844 560.9835218936113Q1390.694178980618 565.7086080520274 1382.3393675459643 568.8658247124235Q1374.0060337756668 572.0445190371763 1363.0094696251708 572.0445190371763ZM1514.4055256736947 572.0445190371763L1514.4055256736947 572.0445190371763Q1499.7148032538921 572.0445190371763 1488.8256274251785 566.6321476193542Q1477.9149739321085 561.2197762015321 1472.0300938984446 551.6407378985612Q1466.1666915291376 542.0402219312339 1466.1666915291376 529.8194309124212L1466.1666915291376 529.8194309124212Q1466.1666915291376 517.4482962431136 1472.4166918568608 507.95516859756844Q1478.68816984894 498.4405632876669 1489.8135999855745 493.0281918698448Q1500.9605077865654 487.61582045202266 1515.3290652410217 487.61582045202266L1515.3290652410217 487.61582045202266Q1524.3067289420123 487.61582045202266 1532.0386881103295 489.6991538945971Q1539.7706472786467 491.78248733717146 1545.4837059974593 495.19743596984495Q1551.2182423806278 498.590906938162 1554.375459041024 502.45688652232064Q1557.5541533657768 506.3228661064793 1557.5541533657768 510.0385020401429L1557.5541533657768 510.0385020401429L1552.9149778647864 510.33918934113296L1552.9149778647864 489.31255593618124L1568.8514048172624 489.31255593618124L1568.8514048172624 570.4981272035129L1552.9149778647864 570.4981272035129L1552.9149778647864 548.0754456153927L1556.0077615321134 549.321150148066Q1556.0077615321134 552.8649647668781 1552.6142905637962 556.8168550084625Q1549.1993419311227 560.7472675856905 1543.4003725548848 564.2266492114333Q1537.6014031786467 567.7060308371761 1530.1056983182502 569.8752749371761Q1522.6099934578538 572.0445190371763 1514.4055256736947 572.0445190371763ZM1517.9708179568634 557.3537966173735L1517.9708179568634 557.3537966173735Q1528.4733958271609 557.3537966173735 1536.527519960825 553.7240713411356Q1544.5601664301323 550.0943460648978 1549.0489982806278 543.8228680728182Q1553.537830131123 537.5513900807385 1553.537830131123 529.8194309124212L1553.537830131123 529.8194309124212Q1553.537830131123 522.087471744104 1549.0489982806278 515.9019044094501Q1544.5601664301323 509.7163370747963 1536.527519960825 506.08661179855847Q1528.4733958271609 502.45688652232064 1517.9708179568634 502.45688652232064L1517.9708179568634 502.45688652232064Q1507.5971060727043 502.45688652232064 1499.5644596033967 506.08661179855847Q1491.5318131340896 509.7163370747963 1486.9570706261684 515.9019044094501Q1482.4038057826037 522.087471744104 1482.4038057826037 529.8194309124212L1482.4038057826037 529.8194309124212Q1482.4038057826037 537.5513900807385 1486.9570706261684 543.8228680728182Q1491.5318131340896 550.0943460648978 1499.5644596033967 553.7240713411356Q1507.5971060727043 557.3537966173735 1517.9708179568634 557.3537966173735ZM1719.6246085994499 570.4981272035129L1702.914985730142 570.4981272035129L1702.914985730142 462.2506988470707L1766.1667072598486 462.2506988470707Q1775.7457455628196 462.2506988470707 1783.7139590390575 466.6536200401402Q1791.6821725152959 471.0565412332098 1796.4716916667812 478.63815675103206Q1801.2612108182666 486.2197722688543 1801.2612108182666 495.49812327083504L1801.2612108182666 495.49812327083504Q1801.2612108182666 505.24898288865745 1795.9991830509398 513.1957187005391Q1790.758632947969 521.1639321767772 1782.0816565479686 525.8890183351933Q1773.4261578123242 530.592626829253 1763.0739235925216 530.592626829253L1763.0739235925216 530.592626829253L1719.6246085994499 530.592626829253L1719.6246085994499 570.4981272035129ZM1719.6246085994499 478.33746945004197L1719.6246085994499 514.5273338906381L1761.5275317588585 514.5273338906381Q1767.3909341281656 514.5273338906381 1772.4167075875719 511.8855811747964Q1777.4424810469782 509.2653061233111 1780.4708317212358 504.92681792331086Q1783.4777047311368 500.60980738766705 1783.4777047311368 495.49812327083504L1783.4777047311368 495.49812327083504Q1783.4777047311368 490.7086041193496 1780.4708317212358 486.84262453519096Q1777.4424810469782 482.9766449510323 1772.4167075875719 480.65705720053717Q1767.3909341281656 478.33746945004197 1761.5275317588585 478.33746945004197L1761.5275317588585 478.33746945004197L1719.6246085994499 478.33746945004197ZM1887.4081225519353 572.0445190371763L1887.4081225519353 572.0445190371763Q1872.7174001321323 572.0445190371763 1861.806746639062 566.6321476193542Q1850.8960931459924 561.2197762015321 1845.0326907766853 551.6407378985612Q1839.1478107430212 542.0402219312339 1839.1478107430212 529.8194309124212L1839.1478107430212 529.8194309124212Q1839.1478107430212 517.4482962431136 1845.419288735101 507.95516859756844Q1851.6692890628242 498.4405632876669 1862.8161968638146 493.0281918698448Q1873.9416270004494 487.61582045202266 1888.331662119262 487.61582045202266L1888.331662119262 487.61582045202266Q1897.287848155896 487.61582045202266 1905.0198073242132 489.6991538945971Q1912.7517664925308 491.78248733717146 1918.4863028756995 495.19743596984495Q1924.1993615945116 498.590906938162 1927.3780559192646 502.45688652232064Q1930.5352725796606 506.3228661064793 1930.5352725796606 510.0385020401429L1930.5352725796606 510.0385020401429L1925.8960970786702 510.33918934113296L1925.8960970786702 489.31255593618124L1941.8325240311465 489.31255593618124L1941.8325240311465 570.4981272035129L1925.8960970786702 570.4981272035129L1925.8960970786702 548.0754456153927L1928.988880745997 549.321150148066Q1928.988880745997 552.8649647668781 1925.5954097776803 556.8168550084625Q1922.2019388093631 560.7472675856905 1916.4029694331252 564.2266492114333Q1910.604000056887 567.7060308371761 1903.0868175321343 569.8752749371761Q1895.5911126717378 572.0445190371763 1887.4081225519353 572.0445190371763ZM1890.9519371707474 557.3537966173735L1890.9519371707474 557.3537966173735Q1901.4759927054015 557.3537966173735 1909.5086391747086 553.7240713411356Q1917.5627633083727 550.0943460648978 1922.0301174945116 543.8228680728182Q1926.5189493450066 537.5513900807385 1926.5189493450066 529.8194309124212L1926.5189493450066 529.8194309124212Q1926.5189493450066 522.087471744104 1922.0301174945116 515.9019044094501Q1917.5627633083727 509.7163370747963 1909.5086391747086 506.08661179855847Q1901.4759927054015 502.45688652232064 1890.9519371707474 502.45688652232064L1890.9519371707474 502.45688652232064Q1880.5997029509444 502.45688652232064 1872.5455788172808 506.08661179855847Q1864.5129323479732 509.7163370747963 1859.9596675044086 515.9019044094501Q1855.3849249964878 522.087471744104 1855.3849249964878 529.8194309124212L1855.3849249964878 529.8194309124212Q1855.3849249964878 537.5513900807385 1859.9596675044086 543.8228680728182Q1864.5129323479732 550.0943460648978 1872.5455788172808 553.7240713411356Q1880.5997029509444 557.3537966173735 1890.9519371707474 557.3537966173735ZM2034.616034050954 606.0651393777723L2017.6057238806561 606.0651393777723L2039.5558968529344 568.3288831035127L2039.5558968529344 580.3993304718304L1987.9235917400601 489.31255593618124L2006.6306373945167 489.31255593618124L2030.5997108163 533.68541049658Q2036.3127695351127 544.209466031234 2040.1787491192713 552.1776795074721Q2044.0447287034299 560.1458929837103 2045.2904332361031 566.1596390035126L2045.2904332361031 566.1596390035126L2043.271532786598 566.1596390035126Q2045.440776886598 560.2962366342053 2049.070502162836 552.0917688500464Q2052.700227439074 543.908778730244 2057.962255206401 533.68541049658L2057.962255206401 533.68541049658L2081.1581327113527 489.31255593618124L2099.7148347153143 489.31255593618124L2053.945931971747 571.4216667708397L2034.616034050954 606.0651393777723ZM2150.7457652262087 570.4981272035129L2150.7457652262087 570.4981272035129L2150.7457652262087 489.31255593618124L2166.6821921786845 489.31255593618124L2166.6821921786845 512.207746140143L2160.797312145021 512.5084334411331Q2164.362604428189 506.6235534074694 2170.0112301539325 500.91049468865714Q2175.638378215319 495.19743596984495 2183.456248041062 491.3958893787556Q2191.274117866805 487.61582045202266 2201.003499820271 487.61582045202266L2201.003499820271 487.61582045202266Q2213.8471431054204 487.61582045202266 2222.4167311836386 492.3194289460824Q2231.0077969262134 497.0445151044985 2235.346285126214 505.0127285807366Q2239.663295661858 512.9809420569748 2239.663295661858 522.5599803599456L2239.663295661858 522.5599803599456L2239.663295661858 570.4981272035129L2223.7483463737376 570.4981272035129L2223.7483463737376 525.1802554114308Q2223.7483463737376 518.3933134747969 2220.0971434331436 513.2816293579649Q2216.4674181569053 508.16994524113284 2210.5181051301724 505.3134158817267Q2204.5687921034396 502.45688652232064 2197.2878638866073 502.45688652232064L2197.2878638866073 502.45688652232064Q2190.6512656004684 502.45688652232064 2185.0026398747254 504.86238493024155Q2179.3540141489825 507.24640567380607 2175.251780256903 511.0479522648954Q2171.17102402918 514.8280211916283 2168.915869271754 519.1665093916286Q2166.6821921786845 523.4835199272724 2166.6821921786845 527.499843161926L2166.6821921786845 527.499843161926L2166.6821921786845 570.4981272035129L2158.7998893598724 570.4981272035129Q2154.7620884608623 570.4981272035129 2152.7646656757133 570.4981272035129Q2150.7457652262087 570.4981272035129 2150.7457652262087 570.4981272035129ZM2347.4596930668145 572.0445190371763L2347.4596930668145 572.0445190371763Q2331.372922463843 572.0445190371763 2318.8514441440407 566.71805827678Q2306.308488159881 561.3701198520271 2299.2852919153265 552.0273358569771Q2292.240618006415 542.6630741975706 2292.240618006415 530.7644481441046L2292.240618006415 530.7644481441046Q2292.240618006415 520.5410799104405 2296.4931955489897 512.5943440985588Q2300.745773091564 504.6261306223207 2308.2414779519604 499.0634155540036Q2315.7586604767134 493.47922282133 2325.4880424301796 490.4723498114288Q2335.238902048002 487.46547680152764 2346.0636448836462 487.46547680152764L2346.0636448836462 487.46547680152764Q2356.265535452954 487.46547680152764 2365.2431991539443 490.32200616093377Q2374.1993851905786 493.1785355203399 2381.007804791569 498.4405632876669Q2387.81622439256 503.70259105499395 2391.5962933192923 510.8761309500439Q2395.3978399103817 518.0711485094503 2395.22601859553 526.8984685599459L2395.22601859553 526.8984685599459L2395.075674945035 535.2318023302435L2307.081684076713 535.2318023302435L2303.537869457901 522.5599803599456L2381.308492092559 522.5599803599456L2378.988904342064 523.6338635777674L2378.988904342064 519.9397053084604Q2378.215708425232 514.6776775411332 2373.3617562806776 510.66135430647955Q2368.4863264717665 506.6235534074694 2361.29130891236 504.38987631439994Q2354.0962913529534 502.1561992213305 2346.0636448836462 502.1561992213305L2346.0636448836462 502.1561992213305Q2335.5395893489917 502.1561992213305 2326.8840906133482 504.7764742728158Q2318.2285918777034 507.39674932430114 2313.116907760872 513.4319730084599Q2308.0267013083962 519.4671966926187 2308.0267013083962 529.6690872619263L2308.0267013083962 529.6690872619263Q2308.0267013083962 538.0238986965802 2313.4390727262185 544.209466031234Q2318.8514441440407 550.3950333658879 2328.430482447011 553.7885043342048Q2338.009520749982 557.2034529668783 2350.5524767341412 557.2034529668783L2350.5524767341412 557.2034529668783Q2363.073955053944 557.2034529668783 2371.2569451737468 553.9603256490564Q2379.4614129579054 550.6957206668781 2384.5730970747377 547.7747583144026L2384.5730970747377 547.7747583144026L2391.5318603262226 559.8237280183637Q2386.8926848252327 562.9165116856906 2379.848010916321 565.7730410450968Q2372.80333700741 568.6510480688592 2364.4700032371125 570.3477835530177Q2356.115191802459 572.0445190371763 2347.4596930668145 572.0445190371763Z " fill="#0284c7" transform="matrix(0.3653088798359725,0,0,0.36530887983597243,0,105.99720645007714)"/></g></svg>